# xmcd
#
# Track frame offsets: 
#        150
#        15867
#        37180
#        52815
#        68760
#        91477
#        113390
#        132372
#        155130
#        173130
#
# Disc length: 2498 seconds
#
# Revision: 3
# Processed by: cddbd v1.5.2PL0 Copyright (c) Steve Scherf et al.
# Submitted via: ExactAudioCopy v0.95b4
#
DISCID=7709c00a
DTITLE=George Thorogood and The Destroyers - Bad To The Bone
DYEAR=1982
DGENRE=Blues
TTITLE0=Back To Wentsville
TTITLE1=Blue Highway
TTITLE2=Nobody But Me
TTITLE3=It's A Sin
TTITLE4=New Boogie Chillun
TTITLE5=Bad To The Bone
TTITLE6=Miss Luann
TTITLE7=As The Years Go Passing By
TTITLE8=No Particular Place To Go
TTITLE9=Wanted Man
EXTD=
EXTT0=
EXTT1=
EXTT2=
EXTT3=
EXTT4=
EXTT5=
EXTT6=
EXTT7=
EXTT8=
EXTT9=
PLAYORDER=
